<?xml version="1.0" encoding="UTF-8" standalone="no"?>
<!DOCTYPE svg PUBLIC "-//W3C//DTD SVG 1.1//EN"
 "http://www.w3.org/Graphics/SVG/1.1/DTD/svg11.dtd">
<!-- Generated by graphviz version 2.43.0 (0)
 -->
<!-- Title: %3 Pages: 1 -->
<svg width="1261pt" height="353pt"
 viewBox="0.00 0.00 1261.00 353.00" xmlns="http://www.w3.org/2000/svg" xmlns:xlink="http://www.w3.org/1999/xlink">
<g id="graph0" class="graph" transform="scale(1 1) rotate(0) translate(4 349)">
<title>%3</title>
<polygon fill="white" stroke="transparent" points="-4,4 -4,-349 1257,-349 1257,4 -4,4"/>
<!-- 0 -->
<g id="node1" class="node">
<title>0</title>
<polygon fill="#ffc125" stroke="black" points="54,-205 0,-205 0,-169 54,-169 54,-205"/>
<text text-anchor="middle" x="27" y="-183.3" font-family="Times,serif" font-size="14.00">$$$$</text>
</g>
<!-- 1 -->
<g id="node2" class="node">
<title>1</title>
<polygon fill="#ffc125" stroke="black" points="154,-232 100,-232 100,-196 154,-196 154,-232"/>
<text text-anchor="middle" x="127" y="-210.3" font-family="Times,serif" font-size="14.00">$$$A</text>
</g>
<!-- 0&#45;&gt;1 -->
<g id="edge1" class="edge">
<title>0&#45;&gt;1</title>
<path fill="none" stroke="black" d="M54,-194.16C65.08,-197.22 78.18,-200.83 90.15,-204.12"/>
<polygon fill="black" stroke="black" points="89.3,-207.52 99.87,-206.8 91.16,-200.77 89.3,-207.52"/>
<text text-anchor="middle" x="77" y="-204.8" font-family="Times,serif" font-size="14.00">A</text>
</g>
<!-- 15 -->
<g id="node16" class="node">
<title>15</title>
<polygon fill="#ffc125" stroke="black" points="154,-178 100,-178 100,-142 154,-142 154,-178"/>
<text text-anchor="middle" x="127" y="-156.3" font-family="Times,serif" font-size="14.00">$$$T</text>
</g>
<!-- 0&#45;&gt;15 -->
<g id="edge2" class="edge">
<title>0&#45;&gt;15</title>
<path fill="none" stroke="black" d="M54,-179.84C65.08,-176.78 78.18,-173.17 90.15,-169.88"/>
<polygon fill="black" stroke="black" points="91.16,-173.23 99.87,-167.2 89.3,-166.48 91.16,-173.23"/>
<text text-anchor="middle" x="77" y="-177.8" font-family="Times,serif" font-size="14.00">T</text>
</g>
<!-- 9 -->
<g id="node10" class="node">
<title>9</title>
<polygon fill="#ffc125" stroke="black" points="254,-232 200,-232 200,-196 254,-196 254,-232"/>
<text text-anchor="middle" x="227" y="-210.3" font-family="Times,serif" font-size="14.00">$$AC</text>
</g>
<!-- 1&#45;&gt;9 -->
<g id="edge3" class="edge">
<title>1&#45;&gt;9</title>
<path fill="none" stroke="black" d="M154,-214C164.97,-214 177.92,-214 189.79,-214"/>
<polygon fill="black" stroke="black" points="189.87,-217.5 199.87,-214 189.87,-210.5 189.87,-217.5"/>
<text text-anchor="middle" x="177" y="-217.8" font-family="Times,serif" font-size="14.00">C</text>
</g>
<!-- 2 -->
<g id="node3" class="node">
<title>2</title>
<polygon fill="none" stroke="black" points="1053,-178 999,-178 999,-142 1053,-142 1053,-178"/>
<text text-anchor="middle" x="1026" y="-156.3" font-family="Times,serif" font-size="14.00">TAAA</text>
</g>
<!-- 3 -->
<g id="node4" class="node">
<title>3</title>
<polygon fill="none" stroke="black" points="953,-178 899,-178 899,-142 953,-142 953,-178"/>
<text text-anchor="middle" x="926" y="-156.3" font-family="Times,serif" font-size="14.00">GTAA</text>
</g>
<!-- 3&#45;&gt;2 -->
<g id="edge4" class="edge">
<title>3&#45;&gt;2</title>
<path fill="none" stroke="black" d="M953,-160C963.97,-160 976.92,-160 988.79,-160"/>
<polygon fill="black" stroke="black" points="988.87,-163.5 998.87,-160 988.87,-156.5 988.87,-163.5"/>
<text text-anchor="middle" x="976" y="-163.8" font-family="Times,serif" font-size="14.00">A</text>
</g>
<!-- 4 -->
<g id="node5" class="node">
<title>4</title>
<polygon fill="none" stroke="black" points="1153,-185 1099,-185 1099,-149 1153,-149 1153,-185"/>
<text text-anchor="middle" x="1126" y="-163.3" font-family="Times,serif" font-size="14.00">TATA</text>
</g>
<!-- 16 -->
<g id="node17" class="node">
<title>16</title>
<polygon fill="none" stroke="black" points="1253,-185 1199,-185 1199,-149 1253,-149 1253,-185"/>
<text text-anchor="middle" x="1226" y="-163.3" font-family="Times,serif" font-size="14.00">ATAT</text>
</g>
<!-- 4&#45;&gt;16 -->
<g id="edge5" class="edge">
<title>4&#45;&gt;16</title>
<path fill="none" stroke="black" d="M1153,-167C1163.97,-167 1176.92,-167 1188.79,-167"/>
<polygon fill="black" stroke="black" points="1188.87,-170.5 1198.87,-167 1188.87,-163.5 1188.87,-170.5"/>
<text text-anchor="middle" x="1176" y="-170.8" font-family="Times,serif" font-size="14.00">T</text>
</g>
<!-- 5 -->
<g id="node6" class="node">
<title>5</title>
<polygon fill="none" stroke="black" points="953,-92 899,-92 899,-56 953,-56 953,-92"/>
<text text-anchor="middle" x="926" y="-70.3" font-family="Times,serif" font-size="14.00">GCTA</text>
</g>
<!-- 17 -->
<g id="node18" class="node">
<title>17</title>
<polygon fill="none" stroke="black" points="1053,-124 999,-124 999,-88 1053,-88 1053,-124"/>
<text text-anchor="middle" x="1026" y="-102.3" font-family="Times,serif" font-size="14.00">CTAT</text>
</g>
<!-- 5&#45;&gt;17 -->
<g id="edge6" class="edge">
<title>5&#45;&gt;17</title>
<path fill="none" stroke="black" d="M953,-82.49C964.08,-86.11 977.18,-90.39 989.15,-94.29"/>
<polygon fill="black" stroke="black" points="988.28,-97.69 998.87,-97.47 990.45,-91.04 988.28,-97.69"/>
<text text-anchor="middle" x="976" y="-94.8" font-family="Times,serif" font-size="14.00">T</text>
</g>
<!-- 6 -->
<g id="node7" class="node">
<title>6</title>
<polygon fill="none" stroke="black" points="853,-186 799,-186 799,-150 853,-150 853,-186"/>
<text text-anchor="middle" x="826" y="-164.3" font-family="Times,serif" font-size="14.00">AGTA</text>
</g>
<!-- 6&#45;&gt;3 -->
<g id="edge7" class="edge">
<title>6&#45;&gt;3</title>
<path fill="none" stroke="black" d="M853.45,-163.18C859.22,-162.3 865.3,-161.5 871,-161 876.66,-160.5 882.67,-160.18 888.55,-159.98"/>
<polygon fill="black" stroke="black" points="888.95,-163.48 898.87,-159.75 888.79,-156.48 888.95,-163.48"/>
<text text-anchor="middle" x="876" y="-164.8" font-family="Times,serif" font-size="14.00">A</text>
</g>
<!-- 11 -->
<g id="node12" class="node">
<title>11</title>
<polygon fill="none" stroke="black" points="653,-187 599,-187 599,-151 653,-151 653,-187"/>
<text text-anchor="middle" x="626" y="-165.3" font-family="Times,serif" font-size="14.00">GTAG</text>
</g>
<!-- 6&#45;&gt;11 -->
<g id="edge8" class="edge">
<title>6&#45;&gt;11</title>
<path fill="none" stroke="black" d="M798.91,-168.13C764.23,-168.31 702.76,-168.62 663.5,-168.82"/>
<polygon fill="black" stroke="black" points="663.28,-165.32 653.29,-168.87 663.31,-172.32 663.28,-165.32"/>
<text text-anchor="middle" x="726" y="-171.8" font-family="Times,serif" font-size="14.00">G</text>
</g>
<!-- 18 -->
<g id="node19" class="node">
<title>18</title>
<polygon fill="none" stroke="black" points="953,-242 899,-242 899,-206 953,-206 953,-242"/>
<text text-anchor="middle" x="926" y="-220.3" font-family="Times,serif" font-size="14.00">GTAT</text>
</g>
<!-- 6&#45;&gt;18 -->
<g id="edge9" class="edge">
<title>6&#45;&gt;18</title>
<path fill="none" stroke="black" d="M853,-182.86C864.3,-189.32 877.71,-196.98 889.87,-203.93"/>
<polygon fill="black" stroke="black" points="888.45,-207.15 898.87,-209.07 891.93,-201.07 888.45,-207.15"/>
<text text-anchor="middle" x="876" y="-200.8" font-family="Times,serif" font-size="14.00">T</text>
</g>
<!-- 7 -->
<g id="node8" class="node">
<title>7</title>
<polygon fill="none" stroke="black" points="553,-294 499,-294 499,-258 553,-258 553,-294"/>
<text text-anchor="middle" x="526" y="-272.3" font-family="Times,serif" font-size="14.00">CGTA</text>
</g>
<!-- 7&#45;&gt;3 -->
<g id="edge10" class="edge">
<title>7&#45;&gt;3</title>
<path fill="none" stroke="red" stroke-dasharray="5,2" d="M553.2,-277.24C572.93,-278.06 600.66,-279 625,-279 625,-279 625,-279 827,-279 838.9,-279 881.6,-221.52 906.53,-186.46"/>
<polygon fill="red" stroke="red" points="909.55,-188.26 912.46,-178.07 903.83,-184.22 909.55,-188.26"/>
<text text-anchor="middle" x="726" y="-282.8" font-family="Times,serif" font-size="14.00" fill="red">A</text>
</g>
<!-- 7&#45;&gt;11 -->
<g id="edge11" class="edge">
<title>7&#45;&gt;11</title>
<path fill="none" stroke="red" stroke-dasharray="5,2" d="M543.62,-257.85C559.46,-240.56 583.47,-214.34 601.31,-194.87"/>
<polygon fill="red" stroke="red" points="604.12,-196.98 608.29,-187.24 598.96,-192.25 604.12,-196.98"/>
<text text-anchor="middle" x="576" y="-228.8" font-family="Times,serif" font-size="14.00" fill="red">G</text>
</g>
<!-- 7&#45;&gt;18 -->
<g id="edge12" class="edge">
<title>7&#45;&gt;18</title>
<path fill="none" stroke="red" stroke-dasharray="5,2" d="M546.31,-294.28C564.93,-309.95 594.7,-330 625,-330 625,-330 625,-330 827,-330 869.7,-330 898.97,-283.05 913.77,-251.64"/>
<polygon fill="red" stroke="red" points="916.99,-253.02 917.9,-242.46 910.61,-250.15 916.99,-253.02"/>
<text text-anchor="middle" x="726" y="-333.8" font-family="Times,serif" font-size="14.00" fill="red">T</text>
</g>
<!-- 8 -->
<g id="node9" class="node">
<title>8</title>
<polygon fill="lightblue" stroke="black" points="553,-178 499,-178 499,-142 553,-142 553,-178"/>
<text text-anchor="middle" x="526" y="-156.3" font-family="Times,serif" font-size="14.00">TGTA</text>
</g>
<!-- 8&#45;&gt;3 -->
<g id="edge13" class="edge">
<title>8&#45;&gt;3</title>
<path fill="none" stroke="red" stroke-dasharray="5,2" d="M536.65,-141.77C551.76,-115.99 583.61,-72 625,-72 625,-72 625,-72 827,-72 864.02,-72 893.42,-107.2 910.02,-133.08"/>
<polygon fill="red" stroke="red" points="907.14,-135.07 915.35,-141.77 913.11,-131.41 907.14,-135.07"/>
<text text-anchor="middle" x="726" y="-75.8" font-family="Times,serif" font-size="14.00" fill="red">A</text>
</g>
<!-- 8&#45;&gt;11 -->
<g id="edge14" class="edge">
<title>8&#45;&gt;11</title>
<path fill="none" stroke="red" stroke-dasharray="5,2" d="M553.14,-159.64C562,-159.74 571.95,-160.1 581,-161 583.5,-161.25 586.07,-161.56 588.66,-161.92"/>
<polygon fill="red" stroke="red" points="588.15,-165.38 598.57,-163.48 589.24,-158.47 588.15,-165.38"/>
<text text-anchor="middle" x="576" y="-164.8" font-family="Times,serif" font-size="14.00" fill="red">G</text>
</g>
<!-- 8&#45;&gt;18 -->
<g id="edge15" class="edge">
<title>8&#45;&gt;18</title>
<path fill="none" stroke="red" stroke-dasharray="5,2" d="M537.47,-178.1C545.26,-190 556.95,-204.99 571,-214 591.87,-227.39 600.21,-228 625,-228 625,-228 625,-228 827,-228 847.45,-228 870.28,-227.12 888.76,-226.18"/>
<polygon fill="red" stroke="red" points="889.01,-229.68 898.81,-225.65 888.64,-222.69 889.01,-229.68"/>
<text text-anchor="middle" x="726" y="-231.8" font-family="Times,serif" font-size="14.00" fill="red">T</text>
</g>
<!-- 12 -->
<g id="node13" class="node">
<title>12</title>
<polygon fill="#ffc125" stroke="black" points="354,-248 300,-248 300,-212 354,-212 354,-248"/>
<text text-anchor="middle" x="327" y="-226.3" font-family="Times,serif" font-size="14.00">$ACG</text>
</g>
<!-- 9&#45;&gt;12 -->
<g id="edge16" class="edge">
<title>9&#45;&gt;12</title>
<path fill="none" stroke="black" d="M254,-218.25C264.97,-220.04 277.92,-222.15 289.79,-224.09"/>
<polygon fill="black" stroke="black" points="289.44,-227.58 299.87,-225.73 290.57,-220.67 289.44,-227.58"/>
<text text-anchor="middle" x="277" y="-225.8" font-family="Times,serif" font-size="14.00">G</text>
</g>
<!-- 10 -->
<g id="node11" class="node">
<title>10</title>
<polygon fill="none" stroke="black" points="753,-36 699,-36 699,0 753,0 753,-36"/>
<text text-anchor="middle" x="726" y="-14.3" font-family="Times,serif" font-size="14.00">TTGC</text>
</g>
<!-- 19 -->
<g id="node20" class="node">
<title>19</title>
<polygon fill="none" stroke="black" points="853,-42 799,-42 799,-6 853,-6 853,-42"/>
<text text-anchor="middle" x="826" y="-20.3" font-family="Times,serif" font-size="14.00">TGCT</text>
</g>
<!-- 10&#45;&gt;19 -->
<g id="edge17" class="edge">
<title>10&#45;&gt;19</title>
<path fill="none" stroke="black" d="M753,-19.59C763.97,-20.26 776.92,-21.06 788.79,-21.78"/>
<polygon fill="black" stroke="black" points="788.68,-25.28 798.87,-22.4 789.11,-18.3 788.68,-25.28"/>
<text text-anchor="middle" x="776" y="-25.8" font-family="Times,serif" font-size="14.00">T</text>
</g>
<!-- 20 -->
<g id="node21" class="node">
<title>20</title>
<polygon fill="none" stroke="black" points="753,-141 699,-141 699,-105 753,-105 753,-141"/>
<text text-anchor="middle" x="726" y="-119.3" font-family="Times,serif" font-size="14.00">TAGT</text>
</g>
<!-- 11&#45;&gt;20 -->
<g id="edge18" class="edge">
<title>11&#45;&gt;20</title>
<path fill="none" stroke="black" d="M653.03,-156.51C658.94,-153.7 665.18,-150.74 671,-148 676.95,-145.2 683.28,-142.25 689.44,-139.39"/>
<polygon fill="black" stroke="black" points="691.28,-142.4 698.88,-135.02 688.33,-136.05 691.28,-142.4"/>
<text text-anchor="middle" x="676" y="-151.8" font-family="Times,serif" font-size="14.00">T</text>
</g>
<!-- 21 -->
<g id="node22" class="node">
<title>21</title>
<polygon fill="lightblue" stroke="black" points="453,-288 399,-288 399,-252 453,-252 453,-288"/>
<text text-anchor="middle" x="426" y="-266.3" font-family="Times,serif" font-size="14.00">ACGT</text>
</g>
<!-- 12&#45;&gt;21 -->
<g id="edge19" class="edge">
<title>12&#45;&gt;21</title>
<path fill="none" stroke="black" d="M354.25,-240.82C365.03,-245.27 377.69,-250.49 389.29,-255.28"/>
<polygon fill="black" stroke="black" points="388.15,-258.59 398.73,-259.17 390.82,-252.12 388.15,-258.59"/>
<text text-anchor="middle" x="376.5" y="-254.8" font-family="Times,serif" font-size="14.00">T</text>
</g>
<!-- 13 -->
<g id="node14" class="node">
<title>13</title>
<polygon fill="#ffc125" stroke="black" points="254,-178 200,-178 200,-142 254,-142 254,-178"/>
<text text-anchor="middle" x="227" y="-156.3" font-family="Times,serif" font-size="14.00">$$TG</text>
</g>
<!-- 22 -->
<g id="node23" class="node">
<title>22</title>
<polygon fill="#ffc125" stroke="black" points="354,-178 300,-178 300,-142 354,-142 354,-178"/>
<text text-anchor="middle" x="327" y="-156.3" font-family="Times,serif" font-size="14.00">$TGT</text>
</g>
<!-- 13&#45;&gt;22 -->
<g id="edge20" class="edge">
<title>13&#45;&gt;22</title>
<path fill="none" stroke="black" d="M254,-160C264.97,-160 277.92,-160 289.79,-160"/>
<polygon fill="black" stroke="black" points="289.87,-163.5 299.87,-160 289.87,-156.5 289.87,-163.5"/>
<text text-anchor="middle" x="277" y="-163.8" font-family="Times,serif" font-size="14.00">T</text>
</g>
<!-- 14 -->
<g id="node15" class="node">
<title>14</title>
<polygon fill="none" stroke="black" points="653,-42 599,-42 599,-6 653,-6 653,-42"/>
<text text-anchor="middle" x="626" y="-20.3" font-family="Times,serif" font-size="14.00">TTTG</text>
</g>
<!-- 14&#45;&gt;10 -->
<g id="edge21" class="edge">
<title>14&#45;&gt;10</title>
<path fill="none" stroke="black" d="M653,-22.41C663.97,-21.74 676.92,-20.94 688.79,-20.22"/>
<polygon fill="black" stroke="black" points="689.11,-23.7 698.87,-19.6 688.68,-16.72 689.11,-23.7"/>
<text text-anchor="middle" x="676" y="-25.8" font-family="Times,serif" font-size="14.00">C</text>
</g>
<!-- 15&#45;&gt;13 -->
<g id="edge22" class="edge">
<title>15&#45;&gt;13</title>
<path fill="none" stroke="black" d="M154,-160C164.97,-160 177.92,-160 189.79,-160"/>
<polygon fill="black" stroke="black" points="189.87,-163.5 199.87,-160 189.87,-156.5 189.87,-163.5"/>
<text text-anchor="middle" x="177" y="-163.8" font-family="Times,serif" font-size="14.00">G</text>
</g>
<!-- 16&#45;&gt;4 -->
<g id="edge23" class="edge">
<title>16&#45;&gt;4</title>
<path fill="none" stroke="black" d="M1198.76,-151.64C1190.07,-148.21 1180.25,-146.09 1171,-148 1168.34,-148.55 1165.65,-149.27 1162.97,-150.1"/>
<polygon fill="black" stroke="black" points="1161.64,-146.86 1153.42,-153.54 1164.02,-153.44 1161.64,-146.86"/>
<text text-anchor="middle" x="1176" y="-151.8" font-family="Times,serif" font-size="14.00">A</text>
</g>
<!-- 17&#45;&gt;4 -->
<g id="edge24" class="edge">
<title>17&#45;&gt;4</title>
<path fill="none" stroke="red" stroke-dasharray="5,2" d="M1053,-122.19C1064.41,-129.29 1077.97,-137.73 1090.23,-145.36"/>
<polygon fill="red" stroke="red" points="1088.53,-148.42 1098.87,-150.74 1092.23,-142.48 1088.53,-148.42"/>
<text text-anchor="middle" x="1076" y="-142.8" font-family="Times,serif" font-size="14.00" fill="red">A</text>
</g>
<!-- 18&#45;&gt;4 -->
<g id="edge25" class="edge">
<title>18&#45;&gt;4</title>
<path fill="none" stroke="red" stroke-dasharray="5,2" d="M953.29,-216.43C988.23,-206.37 1050.08,-188.57 1089.24,-177.3"/>
<polygon fill="red" stroke="red" points="1090.27,-180.64 1098.91,-174.51 1088.34,-173.91 1090.27,-180.64"/>
<text text-anchor="middle" x="1026" y="-206.8" font-family="Times,serif" font-size="14.00" fill="red">A</text>
</g>
<!-- 19&#45;&gt;5 -->
<g id="edge26" class="edge">
<title>19&#45;&gt;5</title>
<path fill="none" stroke="black" d="M853.15,-31.59C862.2,-34.63 872.25,-38.49 881,-43 885.03,-45.08 889.12,-47.49 893.09,-50.02"/>
<polygon fill="black" stroke="black" points="891.3,-53.03 901.55,-55.69 895.2,-47.22 891.3,-53.03"/>
<text text-anchor="middle" x="876" y="-46.8" font-family="Times,serif" font-size="14.00">A</text>
</g>
<!-- 20&#45;&gt;6 -->
<g id="edge27" class="edge">
<title>20&#45;&gt;6</title>
<path fill="none" stroke="black" d="M753,-134.94C764.19,-140.08 777.44,-146.16 789.51,-151.7"/>
<polygon fill="black" stroke="black" points="788.33,-155.01 798.87,-156 791.25,-148.65 788.33,-155.01"/>
<text text-anchor="middle" x="776" y="-150.8" font-family="Times,serif" font-size="14.00">A</text>
</g>
<!-- 21&#45;&gt;7 -->
<g id="edge28" class="edge">
<title>21&#45;&gt;7</title>
<path fill="none" stroke="black" d="M453,-271.59C463.97,-272.26 476.92,-273.06 488.79,-273.78"/>
<polygon fill="black" stroke="black" points="488.68,-277.28 498.87,-274.4 489.11,-270.3 488.68,-277.28"/>
<text text-anchor="middle" x="476" y="-276.8" font-family="Times,serif" font-size="14.00">A</text>
</g>
<!-- 22&#45;&gt;8 -->
<g id="edge29" class="edge">
<title>22&#45;&gt;8</title>
<path fill="none" stroke="black" d="M354.16,-160C388.6,-160 449.34,-160 488.35,-160"/>
<polygon fill="black" stroke="black" points="488.73,-163.5 498.73,-160 488.73,-156.5 488.73,-163.5"/>
<text text-anchor="middle" x="426" y="-163.8" font-family="Times,serif" font-size="14.00">A</text>
</g>
<!-- 23 -->
<g id="node24" class="node">
<title>23</title>
<polygon fill="lightblue" stroke="black" points="453,-88 399,-88 399,-52 453,-52 453,-88"/>
<text text-anchor="middle" x="426" y="-66.3" font-family="Times,serif" font-size="14.00">TGTT</text>
</g>
<!-- 22&#45;&gt;23 -->
<g id="edge30" class="edge">
<title>22&#45;&gt;23</title>
<path fill="none" stroke="black" d="M347.63,-141.79C362.09,-128.37 381.94,-109.95 397.91,-95.13"/>
<polygon fill="black" stroke="black" points="400.45,-97.55 405.4,-88.19 395.69,-92.42 400.45,-97.55"/>
<text text-anchor="middle" x="376.5" y="-121.8" font-family="Times,serif" font-size="14.00">T</text>
</g>
<!-- 24 -->
<g id="node25" class="node">
<title>24</title>
<polygon fill="none" stroke="black" points="553,-88 499,-88 499,-52 553,-52 553,-88"/>
<text text-anchor="middle" x="526" y="-66.3" font-family="Times,serif" font-size="14.00">GTTT</text>
</g>
<!-- 23&#45;&gt;24 -->
<g id="edge31" class="edge">
<title>23&#45;&gt;24</title>
<path fill="none" stroke="black" d="M453,-70C463.97,-70 476.92,-70 488.79,-70"/>
<polygon fill="black" stroke="black" points="488.87,-73.5 498.87,-70 488.87,-66.5 488.87,-73.5"/>
<text text-anchor="middle" x="476" y="-73.8" font-family="Times,serif" font-size="14.00">T</text>
</g>
<!-- 24&#45;&gt;14 -->
<g id="edge32" class="edge">
<title>24&#45;&gt;14</title>
<path fill="none" stroke="black" d="M553.02,-52.79C558.81,-49.31 565.01,-45.85 571,-43 576.77,-40.25 583.05,-37.69 589.22,-35.38"/>
<polygon fill="black" stroke="black" points="590.49,-38.65 598.73,-31.99 588.14,-32.05 590.49,-38.65"/>
<text text-anchor="middle" x="576" y="-46.8" font-family="Times,serif" font-size="14.00">G</text>
</g>
</g>
</svg>
